<svg xmlns="http://www.w3.org/2000/svg" width="30.204" height="30.205" viewBox="0 0 30.204 30.205">
  <g id="cart" transform="translate(0 -2.25)">
    <path id="Path_5" data-name="Path 5" d="M0,3.257A1.007,1.007,0,0,1,1.007,2.25H4.027A1.007,1.007,0,0,1,5,3.013L5.82,6.277H29.2a1.007,1.007,0,0,1,.989,1.192L27.167,23.579a1.007,1.007,0,0,1-.989.822H8.055a1.007,1.007,0,0,1-.989-.822L4.047,7.5l-.8-3.236H1.007A1.007,1.007,0,0,1,0,3.257ZM6.246,8.291l2.644,14.1H25.342l2.644-14.1ZM10.068,24.4A4.027,4.027,0,1,0,14.1,28.428,4.027,4.027,0,0,0,10.068,24.4Zm14.1,0a4.027,4.027,0,1,0,4.027,4.027A4.027,4.027,0,0,0,24.164,24.4Zm-14.1,2.014a2.014,2.014,0,1,0,2.014,2.014A2.014,2.014,0,0,0,10.068,26.414Zm14.1,0a2.014,2.014,0,1,0,2.014,2.014A2.014,2.014,0,0,0,24.164,26.414Z" fill="#454e6d" fill-rule="evenodd"/>
  </g>
</svg>
